<?xml version="1.0" standalone="no"?><!DOCTYPE svg PUBLIC "-//W3C//DTD SVG 1.1//EN" "http://www.w3.org/Graphics/SVG/1.1/DTD/svg11.dtd"><svg t="1586796191562" class="icon" viewBox="0 0 1024 1024" version="1.1" xmlns="http://www.w3.org/2000/svg" p-id="3109" xmlns:xlink="http://www.w3.org/1999/xlink" width="200" height="200"><defs><style type="text/css"></style></defs><path d="M510.976 668.672c-14.336 0-28.672-12.288-28.672-27.648v-13.312-12.288-27.648h-76.8c-7.168 0-13.312-3.072-19.456-8.192-5.12-5.12-8.192-13.312-8.192-20.48 1.024-15.36 12.288-28.672 27.648-28.672H481.28v-1.024V505.856h-76.8c-14.336 0-27.648-12.288-27.648-27.648 0-7.168 3.072-14.336 8.192-20.48 5.12-5.12 12.288-8.192 19.456-8.192h49.152l-1.024-2.048c-10.24-16.384-20.48-33.792-29.696-50.176l-1.024-2.048c-11.264-18.432-21.504-36.864-32.768-54.272-3.072-4.096-11.264-17.408-1.024-29.696 5.12-7.168 14.336-11.264 24.576-11.264 4.096 0 7.168 1.024 10.24 2.048 12.288 4.096 19.456 15.36 22.528 22.528 13.312 24.576 27.648 48.128 40.96 71.68l21.504 38.912 16.384-29.696 13.312-23.552c10.24-18.432 20.48-36.864 30.72-54.272 4.096-7.168 10.24-14.336 16.384-20.48 4.096-4.096 11.264-6.144 16.384-6.144 12.288 0 23.552 7.168 28.672 18.432 3.072 6.144 1.024 14.336-2.048 19.456-13.312 23.552-27.648 47.104-40.96 70.656l-10.24 17.408-13.312 24.576h49.152c14.336 0 26.624 12.288 26.624 28.672s-12.288 28.672-26.624 28.672h-75.776v-1.024V531.456h75.776c13.312 0 24.576 9.216 27.648 21.504 4.096 12.288-4.096 28.672-16.384 33.792-3.072 2.048-6.144 2.048-9.216 2.048h-77.824V606.208c-1.024 13.312 0 24.576 0 35.84 1.024 5.12-2.048 12.288-7.168 17.408-2.048 5.12-11.264 9.216-18.432 9.216z" p-id="3110"></path><path d="M948.224 369.664l-93.184-140.288c-23.552-35.84-74.752-62.464-117.76-62.464H285.696c-43.008 0-93.184 26.624-117.76 62.464L74.752 369.664C48.128 409.6 54.272 466.944 88.064 501.76l359.424 364.544c17.408 17.408 40.96 27.648 65.536 27.648 25.6 0 49.152-9.216 65.536-27.648L737.28 704.512l14.336-15.36c14.336-15.36 14.336-38.912 0-53.248-15.36-14.336-38.912-14.336-53.248 0l-30.72 31.744-143.36 146.432c-3.072 2.048-7.168 4.096-10.24 4.096-2.048 0-7.168 0-11.264-4.096L142.336 448.512c-9.216-9.216-10.24-27.648-4.096-36.864l93.184-140.288c10.24-14.336 35.84-28.672 53.248-28.672h4.096v1.024H737.28c17.408 0 43.008 13.312 53.248 28.672l93.184 140.288c6.144 10.24 5.12 28.672-4.096 36.864L849.92 479.232l-14.336 14.336c-14.336 15.36-14.336 38.912 0 54.272 15.36 14.336 38.912 14.336 54.272 0l12.288-12.288 32.768-33.792c34.816-32.768 39.936-91.136 13.312-132.096z" p-id="3111"></path><path d="M768.105892 618.693517a37.888 37.888 0 1 0 53.132849-54.026868 37.888 37.888 0 1 0-53.132849 54.026868Z" p-id="3112"></path></svg>